<svg xmlns="http://www.w3.org/2000/svg" width="1217" height="783" viewBox="0 0 1217 783">
  <g id="Grupo_93838" data-name="Grupo 93838" transform="translate(-180 -5879)">
    <path id="Trazado_144472" data-name="Trazado 144472" d="M-3861-5769v132" transform="translate(4661 11986)" fill="none" stroke="#004e64" stroke-width="3"/>
    <path id="Trazado_144474" data-name="Trazado 144474" d="M-3861-5769v308" transform="translate(4766.5 12118)" fill="none" stroke="#004e64" stroke-width="3"/>
    <path id="Trazado_144475" data-name="Trazado 144475" d="M-3861-5769v230" transform="translate(-4748.504 10382.5) rotate(90)" fill="none" stroke="#004e64" stroke-width="3"/>
    <path id="Trazado_144473" data-name="Trazado 144473" d="M-3861-5769v132" transform="translate(4871.5 11986)" fill="none" stroke="#004e64" stroke-width="3"/>
    <rect id="Rectángulo_35308" data-name="Rectángulo 35308" width="307" height="52" rx="5" transform="translate(437 5879)" fill="#009ffd"/>
    <g id="Rectángulo_35309" data-name="Rectángulo 35309" transform="translate(305 5971)" fill="#fff" stroke="#009ffd" stroke-width="3">
      <rect width="190" height="84" rx="5" stroke="none"/>
      <rect x="1.5" y="1.5" width="187" height="81" rx="3.5" fill="none"/>
    </g>
    <rect id="Rectángulo_35310" data-name="Rectángulo 35310" width="190" height="84" rx="5" transform="translate(180 6108)" fill="#54bfff"/>
    <rect id="Rectángulo_35311" data-name="Rectángulo 35311" width="190" height="84" rx="5" transform="translate(390 6108)" fill="#54bfff"/>
    <rect id="Rectángulo_35312" data-name="Rectángulo 35312" width="190" height="84" rx="5" transform="translate(600 6108)" fill="#54bfff"/>
    <rect id="Rectángulo_35313" data-name="Rectángulo 35313" width="190" height="84" rx="5" transform="translate(810 6108)" fill="#73f79e"/>
    <rect id="Rectángulo_35314" data-name="Rectángulo 35314" width="190" height="84" rx="5" transform="translate(495 6237)" fill="#d0fcdf"/>
    <rect id="Rectángulo_35315" data-name="Rectángulo 35315" width="190" height="84" rx="5" transform="translate(705 6237)" fill="#d0fcdf"/>
    <rect id="Rectángulo_35316" data-name="Rectángulo 35316" width="190" height="84" rx="5" transform="translate(915 6237)" fill="#d0fcdf"/>
    <rect id="Rectángulo_35317" data-name="Rectángulo 35317" width="190" height="84" rx="5" transform="translate(1125 6237)" fill="#d0fcdf"/>
    <rect id="Rectángulo_35318" data-name="Rectángulo 35318" width="190" height="84" rx="5" transform="translate(810 6385)" fill="#ffe4b3"/>
    <rect id="Rectángulo_35319" data-name="Rectángulo 35319" width="210" height="84" rx="5" transform="translate(800 6479)" fill="#ffe4b3"/>
    <rect id="Rectángulo_35320" data-name="Rectángulo 35320" width="190" height="84" rx="5" transform="translate(810 6578)" fill="#ffe4b3"/>
    <text id="Identificar_el_área_de_planificación" data-name="Identificar el área de planificación" transform="translate(591 5911)" fill="#fff" font-size="16" font-family="Arial-Black, Arial" font-weight="800"><tspan x="-150.824" y="0">Identificar el área de planificación</tspan></text>
    <text id="Definir_los_límites_de_captación" data-name="Definir los
límites de captación" transform="translate(473 6008)" fill="#12263f" font-size="16" font-family="ArialMT, Arial"><tspan x="-71.133" y="0">Definir los</tspan><tspan x="-141.406" y="20">límites de captación</tspan></text>
    <text id="Identificar_desarrollo_de_alcantarillados" data-name="Identificar desarrollo de alcantarillados" transform="translate(275 6131)" fill="#12263f" font-size="16" font-family="ArialMT, Arial"><tspan x="-72.035" y="14">Identificar desarrollo </tspan><tspan x="-62.262" y="34">de alcantarillados</tspan></text>
    <text id="Identificar_uso_de_la_tierra_y_planes_de_desarrollo" data-name="Identificar uso de la tierra y planes de desarrollo" transform="translate(485 6121)" fill="#12263f" font-size="16" font-family="ArialMT, Arial"><tspan x="-69.375" y="14">Identificar uso de la </tspan><tspan x="-61.367" y="34">tierra y planes de </tspan><tspan x="-35.129" y="54">desarrollo</tspan></text>
    <text id="Sistema_en_el_sitio" data-name="Sistema en el sitio" transform="translate(590 6270)" fill="#12263f" font-size="16" font-family="ArialMT, Arial"><tspan x="-64.918" y="14">Sistema en el sitio</tspan></text>
    <text id="Sistema_de_varios_puntos" data-name="Sistema de varios puntos" transform="translate(800 6260)" fill="#12263f" font-size="16" font-family="ArialMT, Arial"><tspan x="-63.582" y="14">Sistema de varios </tspan><tspan x="-24.02" y="34">puntos</tspan></text>
    <text id="Evaluación_técnica_financiera_ambiental" data-name="Evaluación técnica / financiera / ambiental" transform="translate(905 6408)" fill="#12263f" font-size="16" font-family="ArialMT, Arial"><tspan x="-71.152" y="14">Evaluación técnica / </tspan><tspan x="-76.043" y="34">financiera / ambiental</tspan></text>
    <text id="Seleccionar_y_optimizar_el_sistema_de_alcantarillado_preferido" data-name="Seleccionar y optimizar el sistema de alcantarillado preferido" transform="translate(907 6492)" fill="#12263f" font-size="16" font-family="ArialMT, Arial"><tspan x="-91.148" y="14">Seleccionar y optimizar el </tspan><tspan x="-88.047" y="34">sistema de alcantarillado </tspan><tspan x="-31.574" y="54">preferido</tspan></text>
    <text id="Esquema_de_implementación_por_etapas" data-name="Esquema de implementación por etapas" transform="translate(905 6593)" fill="#12263f" font-size="16" font-family="ArialMT, Arial"><tspan x="-44.918" y="14">Esquema de </tspan><tspan x="-69.813" y="34">implementación por </tspan><tspan x="-24.02" y="54">etapas</tspan></text>
    <text id="Sistema_central" data-name="Sistema central" transform="translate(1010 6270)" fill="#12263f" font-size="16" font-family="ArialMT, Arial"><tspan x="-55.133" y="14">Sistema central</tspan></text>
    <text id="Estimar_proyecciones_de_población" data-name="Estimar proyecciones de población" transform="translate(695 6131)" fill="#12263f" font-size="16" font-family="ArialMT, Arial"><tspan x="-76.473" y="14">Estimar proyecciones </tspan><tspan x="-45.371" y="34">de población</tspan></text>
    <text id="Identificar_estrategias_alternativas_de_alcantarillado" data-name="Identificar estrategias alternativas de alcantarillado" transform="translate(907 6121)" fill="#12263f" font-size="16" font-family="Arial-BoldMT, Arial" font-weight="700"><tspan x="-82.699" y="14">Identificar estrategias </tspan><tspan x="-56.027" y="34">alternativas de </tspan><tspan x="-51.574" y="54">alcantarillado</tspan></text>
    <text id="Integrar_sistema_de_captación_alcantarillado_vecino" data-name="Integrar sistema de captación alcantarillado vecino" transform="translate(1220 6250)" fill="#12263f" font-size="16" font-family="ArialMT, Arial"><tspan x="-68.477" y="14">Integrar sistema de </tspan><tspan x="-83.609" y="34">captación alcantarillado </tspan><tspan x="-23.125" y="54">vecino</tspan></text>
    <path id="Trazado_144462" data-name="Trazado 144462" d="M-3526-5592v-20h-630v20" transform="translate(4431.5 11700)" fill="none" stroke="#004e64" stroke-width="3"/>
    <path id="Trazado_144468" data-name="Trazado 144468" d="M-3526-5592v-20h-630v20" transform="translate(4746 11829)" fill="none" stroke="#004e64" stroke-width="3"/>
    <path id="Trazado_144463" data-name="Trazado 144463" d="M-3861-5769v155.667" transform="translate(4451 11700)" fill="none" stroke="#004e64" stroke-width="3"/>
    <path id="Trazado_144465" data-name="Trazado 144465" d="M-3861-5769v21.334" transform="translate(4346 11855.666)" fill="none" stroke="#004e64" stroke-width="3"/>
    <path id="Trazado_144466" data-name="Trazado 144466" d="M-3861-5769v21.334" transform="translate(4556 11855.666)" fill="none" stroke="#004e64" stroke-width="3"/>
    <path id="Trazado_144467" data-name="Trazado 144467" d="M-3861-5769v25" transform="translate(4766.5 11961)" fill="none" stroke="#004e64" stroke-width="3"/>
    <path id="Trazado_144464" data-name="Trazado 144464" d="M-3851-5686.667h-95" transform="translate(4441 11700)" fill="none" stroke="#004e64" stroke-width="3"/>
    <path id="Trazado_144469" data-name="Trazado 144469" d="M-3211-5297h-20v195.5h20" transform="translate(4021 11721.5)" fill="none" stroke="#004e64" stroke-width="3"/>
    <path id="Trazado_144477" data-name="Trazado 144477" d="M20,0H0V195.5H20" transform="translate(1020 6620) rotate(180)" fill="none" stroke="#004e64" stroke-width="3"/>
    <path id="Trazado_144471" data-name="Trazado 144471" d="M-3851-5379.333V-5351h631v-28.333" transform="translate(4441 11700)" fill="none" stroke="#004e64" stroke-width="3"/>
  </g>
</svg>
