<svg xmlns="http://www.w3.org/2000/svg" width="23.682" height="70.539" viewBox="0 0 23.682 70.539">
  <path id="Trazado_144964" data-name="Trazado 144964" d="M8.442,12.3q-6.665-1.88-9.485-5.981a17.129,17.129,0,0,1-2.82-9.946v-6.938a8.291,8.291,0,0,0-1.487-5.264,5.462,5.462,0,0,0-4.563-1.88v-6.87a5.485,5.485,0,0,0,4.563-1.863,8.339,8.339,0,0,0,1.487-5.315v-6.938a17.049,17.049,0,0,1,2.82-9.929q2.82-4.084,9.485-5.964l1.914,5.366a6.835,6.835,0,0,0-4.1,3.777,16.769,16.769,0,0,0-1.2,6.75v6.938a12.818,12.818,0,0,1-1.521,6.306,10.384,10.384,0,0,1-4.6,4.29,10.785,10.785,0,0,1,4.6,4.358,12.676,12.676,0,0,1,1.521,6.238v6.938a16.769,16.769,0,0,0,1.2,6.75,6.835,6.835,0,0,0,4.1,3.777Z" transform="translate(11.412 56.409)" fill="none" stroke="#004e64" stroke-linecap="round" stroke-width="3"/>
</svg>
