<svg xmlns="http://www.w3.org/2000/svg" width="59.988" height="59.999" viewBox="0 0 59.988 59.999">
  <g id="Grupo_94259" data-name="Grupo 94259" transform="translate(88.413 -388.454)">
    <path id="Trazado_144957" data-name="Trazado 144957" d="M-65.686,448.453a21.613,21.613,0,0,1-2.3-.6,10.839,10.839,0,0,1-7.306-8.877c-.064-.383-.183-.526-.584-.52-1.406.022-2.812.019-4.217,0a.552.552,0,0,0-.619.445,4,4,0,0,1-4.425,2.485,4.048,4.048,0,0,1-3.277-3.947,4.018,4.018,0,0,1,3.254-3.9,3.964,3.964,0,0,1,4.461,2.5c.113.3.235.434.571.43,1.425-.017,2.851-.021,4.276,0,.384.006.5-.141.554-.491a10.916,10.916,0,0,1,8.4-9.227,11,11,0,0,1,11.707,4.742c.1.164.208.327.339.531,1.281-.96,2.551-1.894,3.79-2.867.122-.1.12-.45.066-.655a10.874,10.874,0,0,1,1.3-8.934,10.84,10.84,0,0,1,6.054-4.63l.464-.15-4.455-5.941a11.088,11.088,0,0,1-16.625-7.358l-4.536,3.872c.6,1.2,1.242,2.291,1.705,3.456a21.527,21.527,0,0,1,.612,2.607,1.587,1.587,0,0,0,.432.816c1.565,1.262,3.166,2.478,4.74,3.73a.643.643,0,0,0,.862.064,3.782,3.782,0,0,1,4.3.166,3.74,3.74,0,0,1,1.636,3.932,3.767,3.767,0,0,1-2.918,3.167,3.759,3.759,0,0,1-3.817-1.037,3.748,3.748,0,0,1-1.017-3.825.755.755,0,0,0-.335-.964c-1.322-1-2.618-2.027-3.834-2.974a36.5,36.5,0,0,1-1.691,3.75,10.765,10.765,0,0,1-10.891,5.091,10.593,10.593,0,0,1-8.97-7.942,10.9,10.9,0,0,1,9.04-13.817c.387-.056.525-.185.519-.584-.022-1.406-.019-2.812,0-4.218a.552.552,0,0,0-.446-.618,4,4,0,0,1-2.483-4.427,4.046,4.046,0,0,1,3.947-3.276,4.017,4.017,0,0,1,3.9,3.255A3.963,3.963,0,0,1-76,396.17c-.3.114-.432.237-.428.572.017,1.425.011,2.851,0,4.277,0,.28.02.494.371.534a10.974,10.974,0,0,1,5.627,2.4.748.748,0,0,0,.134.062c1.887-1.616,3.787-3.238,5.675-4.873a.8.8,0,0,0,.227-.495,10.958,10.958,0,0,1,15.055-9.381,10.768,10.768,0,0,1,6.729,8.06,1.041,1.041,0,0,0,.485.618q3.327,1.651,6.685,3.237a.811.811,0,0,0,.672.016,4.018,4.018,0,0,1,6.242,2.4.933.933,0,0,0,.1.2v1.289c-.06.161-.129.32-.18.484a3.963,3.963,0,0,1-6.5,1.812,3.971,3.971,0,0,1-1.082-4.331l-6.257-3.018a11.173,11.173,0,0,1-3.606,7.581c1.624,2.165,3.234,4.3,4.824,6.444a.894.894,0,0,0,.816.409,10.927,10.927,0,0,1,10.754,13.08,10.448,10.448,0,0,1-8.442,8.623c-4.455.992-8.165-.517-11.046-4.049-.314-.385-.578-.809-.874-1.228-1.259.945-2.483,1.85-3.684,2.784a.713.713,0,0,0-.188.564c.135,1.041.341,2.074.45,3.117a.726.726,0,0,0,.475.689q3.247,1.546,6.475,3.13a.754.754,0,0,0,.883-.052,3.963,3.963,0,0,1,4.955.454,3.978,3.978,0,0,1,.684,4.842,4.315,4.315,0,0,1-2.871,2.027h-1.172a4.7,4.7,0,0,1-2.358-1.316,4.027,4.027,0,0,1-.81-4.076l-6.506-3.14c-.058.164-.095.254-.122.347a10.9,10.9,0,0,1-7.236,7.649c-.669.236-1.378.36-2.068.535Zm7.259-4.4a8.781,8.781,0,0,0,2.566-9.362,9.014,9.014,0,0,0-8.772-6.233,9.014,9.014,0,0,0-8.6,7.208c-.739,3.416.895,7.021,2.8,8.325.007-.15.015-.282.021-.414a3.023,3.023,0,0,1,3.171-3.109c1.972-.023,3.945-.032,5.916.019a2.993,2.993,0,0,1,2.9,2.9C-58.417,443.59-58.427,443.8-58.427,444.053ZM-71.433,419.1a8.956,8.956,0,0,0,2.4-9.895,9.045,9.045,0,0,0-8.992-5.735,9.051,9.051,0,0,0-8.159,6.944,8.712,8.712,0,0,0,2.753,8.6c.008-.162.015-.29.021-.419a2.916,2.916,0,0,1,2.916-3.1c2.141-.094,4.294-.067,6.436.031a2.893,2.893,0,0,1,2.623,2.771C-71.421,418.527-71.433,418.755-71.433,419.1Zm37.044,12.911a8.772,8.772,0,0,0,2.542-9.28,9.012,9.012,0,0,0-8.966-6.267,9.047,9.047,0,0,0-8.336,6.79c-.933,3.656.744,7.336,2.691,8.736.015-.205.025-.4.043-.591a2.909,2.909,0,0,1,2.875-2.9c2.1-.1,4.214-.091,6.315.012a2.926,2.926,0,0,1,2.8,2.917C-34.406,431.613-34.4,431.8-34.389,432.013Zm-13.023-25.958a8.858,8.858,0,0,0,2.458-9.626,9.02,9.02,0,0,0-9.015-5.961,9.023,9.023,0,0,0-8.266,7.18c-.728,3.384.8,6.914,2.779,8.337.012-.168.023-.322.035-.475a2.96,2.96,0,0,1,3.011-3.026c2.008-.08,4.021-.022,6.032-.008a2.919,2.919,0,0,1,2.05.875A3.36,3.36,0,0,1-47.412,406.055Zm6.991,24.391c-.9,0-1.793-.015-2.689,0-.935.02-1.3.4-1.314,1.33-.007.409.023.821-.009,1.227a.608.608,0,0,0,.465.686,9.055,9.055,0,0,0,6.49.227c1.063-.351,1.062-.356,1.062-1.493,0-.195,0-.39,0-.585-.009-.992-.379-1.378-1.374-1.394C-38.667,430.434-39.544,430.446-40.421,430.446Zm-36.964-13c-.935,0-1.871-.022-2.806.007-.85.026-1.2.406-1.218,1.231-.008.448.02.9-.008,1.344a.573.573,0,0,0,.423.649,9.042,9.042,0,0,0,6.708.167c.871-.312.866-.326.866-1.273,0-.253,0-.507,0-.76-.006-.963-.368-1.345-1.335-1.363C-75.631,417.436-76.508,417.449-77.385,417.451Zm13,25.014c-.955,0-1.91-.014-2.865,0a1.051,1.051,0,0,0-1.154,1.167c-.012.448.028.9-.012,1.344a.634.634,0,0,0,.487.73,9.289,9.289,0,0,0,6.719.134c.631-.217.92-.535.806-1.212a6.6,6.6,0,0,1-.01-.934,1.092,1.092,0,0,0-1.223-1.232C-62.557,442.453-63.473,442.464-64.389,442.465ZM-53.4,408.53c1-.211,2.016-.37,3-.648,1-.283.985-.335.985-1.365,0-.312.014-.625,0-.935a1.015,1.015,0,0,0-1.047-1.1q-2.95-.047-5.9,0c-.675.01-1.011.4-1.044,1.089-.023.486.013.975-.015,1.461a.581.581,0,0,0,.43.648A11.819,11.819,0,0,0-53.4,408.53ZM-82.44,437.492a1.988,1.988,0,0,0-1.968-2.038,2.023,2.023,0,0,0-2.008,1.957,2,2,0,0,0,1.986,2.026A1.959,1.959,0,0,0-82.44,437.492Zm5.019-43.063a1.986,1.986,0,0,0,2-2.007,2.024,2.024,0,0,0-2-1.971,2,2,0,0,0-1.987,2.025A1.958,1.958,0,0,0-77.42,394.428Zm17.007,25.045a2,2,0,0,0,1.984,1.971,2,2,0,0,0,2-2.014,1.985,1.985,0,0,0-1.984-1.966A1.989,1.989,0,0,0-60.413,419.473Zm18.981,24.992a1.983,1.983,0,0,0-1.949-2,1.985,1.985,0,0,0-2.033,1.974,2.012,2.012,0,0,0,2.009,2.01A2.012,2.012,0,0,0-41.432,444.465Zm9.034-42a1.979,1.979,0,0,0-2.01,1.933,1.988,1.988,0,0,0,1.961,2.046,2.016,2.016,0,0,0,2.023-2A2,2,0,0,0-32.4,402.464Z" transform="translate(0 0)" fill="#12263f"/>
    <path id="Trazado_144958" data-name="Trazado 144958" d="M47.947,678.707a3.991,3.991,0,1,1,3.984,3.982A4,4,0,0,1,47.947,678.707Zm2,.006a1.989,1.989,0,0,0,1.977,1.972,1.991,1.991,0,1,0,.015-3.981A1.974,1.974,0,0,0,49.946,678.713Z" transform="translate(-116.35 -244.239)" fill="#12263f"/>
    <path id="Trazado_144959" data-name="Trazado 144959" d="M-36.734,512.264a3.974,3.974,0,0,1-3.9-4.05,4.012,4.012,0,0,1,4.037-3.929,4.038,4.038,0,0,1,3.941,4.039A4,4,0,0,1-36.734,512.264Zm.056-2a2,2,0,0,0,2.027-1.986,2.031,2.031,0,0,0-1.969-2,2.007,2.007,0,0,0-2.013,1.942A1.968,1.968,0,0,0-36.678,510.269Z" transform="translate(-40.769 -98.833)" fill="#12263f"/>
    <path id="Trazado_144960" data-name="Trazado 144960" d="M215.454,600.883a3.991,3.991,0,1,1,0-7.981,3.991,3.991,0,0,1,0,7.981Zm-.042-2a2,2,0,0,0,2.024-1.989,2.022,2.022,0,0,0-1.97-2,1.99,1.99,0,0,0-2.011,2A1.967,1.967,0,0,0,215.412,598.883Z" transform="translate(-255.862 -174.447)" fill="#12263f"/>
    <path id="Trazado_144961" data-name="Trazado 144961" d="M126.87,423.654a3.993,3.993,0,0,1-.016-7.986,4.061,4.061,0,0,1,4.026,4.024A4.02,4.02,0,0,1,126.87,423.654Zm.032-2a2,2,0,0,0,1.974-1.981,2.036,2.036,0,0,0-2.025-2.006,2,2,0,0,0-1.957,2.058A1.96,1.96,0,0,0,126.9,421.653Z" transform="translate(-180.299 -23.221)" fill="#12263f"/>
  </g>
</svg>
