<svg xmlns="http://www.w3.org/2000/svg" width="61.34" height="61.333" viewBox="0 0 61.34 61.333">
  <path id="Trazado_144962" data-name="Trazado 144962" d="M393.882,563.462a8.021,8.021,0,0,1-3.761-1.706,7.159,7.159,0,0,1,3.123-12.434c.153-.037.305-.079.476-.124V538.916h-1.059c-1.018,0-2.036.018-3.053-.009a3,3,0,0,1-3.006-2.895c-.061-1.454-.059-2.915,0-4.37a2.984,2.984,0,0,1,3.039-2.922q5.119-.038,10.238,0a2.972,2.972,0,0,1,3.02,2.806c.042.4.048.794.072,1.229h6.115c0-.38-.015-.754,0-1.125a3,3,0,0,1,2.926-2.906c1.156-.037,2.315-.012,3.472-.015h.721c0-.752.029-1.445-.024-2.133-.011-.14-.316-.307-.514-.374q-5.182-1.746-10.372-3.467c-.609-.2-1.3-.351-1.322-1.165-.018-.862.713-1,1.335-1.212,3.438-1.147,6.875-2.3,10.32-3.427.421-.138.645-.3.591-.782-.064-.565.131-1.322-.166-1.651-.259-.287-1.048-.109-1.6-.112-1.7-.008-3.393,0-5.089,0a3.1,3.1,0,0,1-3.37-3.4q-.007-2.724,0-5.449a3.113,3.113,0,0,1,3.378-3.4q7.873-.005,15.746,0a3.1,3.1,0,0,1,3.368,3.351q.012,2.784,0,5.569a3.08,3.08,0,0,1-3.318,3.33c-2.055.013-4.111,0-6.167,0h-.729c0,.752-.017,1.444.016,2.133.006.117.207.279.349.327q5.409,1.817,10.828,3.6a2.5,2.5,0,0,0,.768.078q4.52.008,9.04,0c1.161,0,1.457.3,1.458,1.445q0,2.994,0,5.988v.745h1.57c.8,0,1.6-.008,2.395,0a3.038,3.038,0,0,1,3.084,2.258,2.768,2.768,0,0,0,.121.269v5.151a2.7,2.7,0,0,0-.122.268,3.042,3.042,0,0,1-3.083,2.257c-.758.01-1.516,0-2.274,0h-1.668v10.292c.2.049.388.1.577.146a7.075,7.075,0,0,1,5.453,5.851,6.939,6.939,0,0,1-3.119,7.02,18.471,18.471,0,0,1-3.07,1.237h-1.677c-.153-.04-.3-.09-.459-.118a7.141,7.141,0,0,1-.238-14.014c.366-.077.478-.218.476-.588-.014-3.133-.008-6.267-.011-9.4a3.475,3.475,0,0,0-.059-.434c-1.407,0-2.782.031-4.156-.008a2.97,2.97,0,0,1-2.879-2.69c-.05-.446-.067-.9-.1-1.323H425.4c0,.309,0,.567,0,.825a3.048,3.048,0,0,1-3.192,3.2c-.838.011-1.676,0-2.514,0-2.474,0-4.949.011-7.423,0a3.039,3.039,0,0,1-3.2-3.2c0-.273,0-.547,0-.848h-6.137c0,.308.01.585,0,.86a3.059,3.059,0,0,1-2.395,3.1,5.233,5.233,0,0,1-1.129.084c-1.191.01-2.381,0-3.561,0a1.393,1.393,0,0,0-.056.24c0,3.233-.01,6.467.011,9.7a.63.63,0,0,0,.385.45,7.008,7.008,0,0,1,5.518,5.5c.095.39.264.493.648.488,1.6-.022,3.193-.009,4.789-.009h2.995c.06-.22.112-.39.151-.563A7.138,7.138,0,1,1,420,562.875a19.937,19.937,0,0,1-1.929.587h-1.557c-.133-.036-.265-.083-.4-.107a6.885,6.885,0,0,1-4.979-3.381,21.517,21.517,0,0,1-1.107-2.607h-8.2a7.033,7.033,0,0,1-3.65,5.175,20.4,20.4,0,0,1-2.5.919ZM417.2,512.339q3.95,0,7.9,0c.98,0,1.333-.354,1.336-1.335q.01-2.723,0-5.447c0-1.02-.359-1.383-1.362-1.384q-7.839,0-15.679,0c-1.006,0-1.364.362-1.367,1.379q-.007,2.693,0,5.387c0,1.062.336,1.4,1.392,1.4Q413.314,512.343,417.2,512.339Zm1.065,16.37h.657c1.137,0,2.275-.017,3.411.007a3.02,3.02,0,0,1,3.058,3.027c.012.332,0,.665,0,1.015h6.141c0-.312-.007-.589,0-.866a2.988,2.988,0,0,1,1.783-2.875,4.265,4.265,0,0,1,1.565-.295c1.249-.041,2.5-.013,3.758-.013v-6.1c-.137-.012-.234-.028-.332-.029q-4.19,0-8.379,0a1.719,1.719,0,0,0-.529.075q-5.387,1.787-10.768,3.594c-.143.048-.346.207-.352.322C418.251,527.263,418.268,527.955,418.268,528.709Zm26.538,27.668a5.1,5.1,0,0,0-10.2-.157,5.1,5.1,0,1,0,10.2.157Zm-49.97-5.17a5.092,5.092,0,1,0,5.021,5.171A5.089,5.089,0,0,0,394.836,551.207Zm22.41,0a5.1,5.1,0,1,0,5.1,5.1A5.131,5.131,0,0,0,417.246,551.205Zm-22.465-14.331c1.6,0,3.191,0,4.786,0,.95,0,1.306-.346,1.316-1.292q.019-1.765,0-3.53c-.01-.954-.359-1.295-1.309-1.3q-4.816-.005-9.632,0c-.946,0-1.316.361-1.322,1.289q-.012,1.765,0,3.53c.006.934.374,1.3,1.316,1.3C391.551,536.878,393.166,536.875,394.782,536.875Zm22.43,0c1.655,0,3.31.008,4.965,0a1.04,1.04,0,0,0,1.177-1.179q.017-1.885,0-3.769a1.032,1.032,0,0,0-1.188-1.165q-4.935-.011-9.871,0a1.033,1.033,0,0,0-1.177,1.177c-.011,1.217-.008,2.433,0,3.65,0,.94.357,1.287,1.31,1.29C414.021,536.878,415.617,536.875,417.212,536.874Zm22.543-6.12c-1.635,0-3.27,0-4.905,0-.88,0-1.245.348-1.259,1.224q-.028,1.825,0,3.65c.012.88.378,1.241,1.243,1.243q4.875.009,9.751,0c.893,0,1.261-.379,1.267-1.287q.013-1.765,0-3.53c-.006-.938-.37-1.3-1.311-1.3C442.946,530.75,441.35,530.754,439.755,530.754Zm-31.491-9.188c3.02,1.009,5.869,1.968,8.727,2.9a1.3,1.3,0,0,0,.744-.076q3.944-1.3,7.879-2.625c.154-.052.3-.125.54-.226-.2-.078-.281-.118-.371-.148-2.739-.914-5.475-1.834-8.22-2.729a1.37,1.37,0,0,0-.794.036c-2.611.855-5.216,1.73-7.822,2.6C408.766,521.36,408.591,521.437,408.263,521.565Z" transform="translate(-386.556 -502.129)" fill="#12263f"/>
</svg>
