<svg xmlns="http://www.w3.org/2000/svg" xmlns:xlink="http://www.w3.org/1999/xlink" width="1240" height="498.477" viewBox="0 0 1240 498.477">
  <defs>
    <linearGradient id="linear-gradient" x1="4.697" y1="0.972" x2="-6.57" y2="-0.311" gradientUnits="objectBoundingBox">
      <stop offset="0" stop-color="#cfe9f7"/>
      <stop offset="1" stop-color="#b2e8f7"/>
    </linearGradient>
    <linearGradient id="linear-gradient-2" x1="11.672" y1="1.462" x2="0.848" y2="0.539" xlink:href="#linear-gradient"/>
    <clipPath id="clip-path">
      <path id="_1" data-name="1" d="M1240,186.7V625.816H0V343.728c9.77-4.363,25.524-18.281,30.068-23.544,18.273-21.156,23.188-51.651,31.942-77.342,8.767-25.721,33.658-51.787,59.261-42.729,19.426,6.871,27,29.509,36.093,48,22.582,45.925,71.732,79.193,122.876,77.378,36.1-1.282,74.829-18.287,106.437-.8,35.233,19.494,70.75,99.22,123.062,70,42.924-23.975,18.315-93.665,54.354-124.152,24.025-20.325,61.233-10.9,87.962,5.707s50.811,39.745,81.632,46.092c49.256,10.143,94.784-25.27,135.487-54.8s96.686-55.366,138.7-27.731c26.41,17.369,39.663,52.331,69.229,63.517,31.3,11.842,65.863-9.046,87.423-34.644,14.764-17.529,26.014-37.718,40.77-55.228C1213.931,203.21,1224.954,189.179,1240,186.7ZM127.9,364.069c10.23-.7,20.827-6.574,23.845-16.373,3.43-11.134-3.608-22.529-10.311-32.057q-11.3-16.075-22.607-32.147c-6.516-9.266-15.8-19.7-26.866-17.286-7.273,1.587-12.324,8.708-13.643,16.033s.381,14.833,2.385,22C88.024,330.42,94.626,366.347,127.9,364.069Zm824.738-94.614c-2.685.852-83.209,35.035-60.534,49.753,7.815,5.073,18.332,1.734,26.262-3.16s15.4-11.386,24.628-12.708c18.5-2.654,36.326,16.473,53.987,10.36a20.982,20.982,0,0,0,13.7-20.228c-.578-12.352-17.435-25.8-28.982-27.97C971.986,263.681,962.054,266.462,952.638,269.455Z" transform="translate(0 -186.699)" fill="none"/>
    </clipPath>
    <linearGradient id="linear-gradient-3" x1="-1.592" y1="-2.741" x2="-0.524" y2="-2.741" gradientUnits="objectBoundingBox">
      <stop offset="0"/>
      <stop offset="0.543" stop-color="#355ff9"/>
      <stop offset="1" stop-color="#154d66"/>
    </linearGradient>
    <linearGradient id="linear-gradient-4" x1="20.465" y1="-0.341" x2="21.533" y2="-0.341" xlink:href="#linear-gradient-3"/>
    <linearGradient id="linear-gradient-5" x1="9.766" y1="-3.661" x2="10.808" y2="-3.661" xlink:href="#linear-gradient-3"/>
    <linearGradient id="linear-gradient-6" x1="2.851" y1="-2.117" x2="3.86" y2="-2.117" xlink:href="#linear-gradient-3"/>
    <linearGradient id="linear-gradient-7" x1="-4.57" y1="-1.278" x2="-3.526" y2="-1.278" xlink:href="#linear-gradient-3"/>
    <linearGradient id="linear-gradient-8" x1="46.64" y1="-1.918" x2="47.724" y2="-1.918" xlink:href="#linear-gradient"/>
    <clipPath id="clip-path-2">
      <path id="Trazado_144953" data-name="Trazado 144953" d="M717.772,181.491c7.967-35.289,34.159-37.6,51.18-28.675,20.595,10.8,20.973,45.448-1.192,69.362-29.45,31.775-96.154,19.654-96.1-8.137C671.689,198.719,711.312,210.112,717.772,181.491Z" transform="translate(-671.66 -148.402)" fill="url(#linear-gradient)"/>
    </clipPath>
    <linearGradient id="linear-gradient-9" x1="-0.02" y1="0.5" x2="1.012" y2="0.5" xlink:href="#linear-gradient"/>
    <linearGradient id="linear-gradient-10" x1="7.5" y1="1.155" x2="-8.847" y2="-0.375" xlink:href="#linear-gradient"/>
    <clipPath id="clip-path-3">
      <path id="Trazado_144956" data-name="Trazado 144956" d="M212.485,197.51c27.929,11.307,43.412,35.038,30.121,62.081-16.083,32.725-56.711,33.23-79.416,13.42-36.451-31.806-42.14-99.663-14.7-112.124C170.359,150.952,169.841,180.247,212.485,197.51Z" transform="translate(-131.271 -158.88)" fill="url(#linear-gradient-2)"/>
    </clipPath>
    <linearGradient id="linear-gradient-11" x1="0.882" y1="0.058" x2="0.291" y2="1.05" xlink:href="#linear-gradient"/>
  </defs>
  <g id="Grupo_95183" data-name="Grupo 95183" transform="translate(0 -148.402)" opacity="0.47">
    <g id="_1_group" data-name="1_group" transform="translate(0 207.762)">
      <path id="_1-2" data-name="1" d="M1240,186.7V625.816H0V343.728c9.77-4.363,25.524-18.281,30.068-23.544,18.273-21.156,23.188-51.651,31.942-77.342,8.767-25.721,33.658-51.787,59.261-42.729,19.426,6.871,27,29.509,36.093,48,22.582,45.925,71.732,79.193,122.876,77.378,36.1-1.282,74.829-18.287,106.437-.8,35.233,19.494,70.75,99.22,123.062,70,42.924-23.975,18.315-93.665,54.354-124.152,24.025-20.325,61.233-10.9,87.962,5.707s50.811,39.745,81.632,46.092c49.256,10.143,94.784-25.27,135.487-54.8s96.686-55.366,138.7-27.731c26.41,17.369,39.663,52.331,69.229,63.517,31.3,11.842,65.863-9.046,87.423-34.644,14.764-17.529,26.014-37.718,40.77-55.228C1213.931,203.21,1224.954,189.179,1240,186.7ZM127.9,364.069c10.23-.7,20.827-6.574,23.845-16.373,3.43-11.134-3.608-22.529-10.311-32.057q-11.3-16.075-22.607-32.147c-6.516-9.266-15.8-19.7-26.866-17.286-7.273,1.587-12.324,8.708-13.643,16.033s.381,14.833,2.385,22C88.024,330.42,94.626,366.347,127.9,364.069Zm824.738-94.614c-2.685.852-83.209,35.035-60.534,49.753,7.815,5.073,18.332,1.734,26.262-3.16s15.4-11.386,24.628-12.708c18.5-2.654,36.326,16.473,53.987,10.36a20.982,20.982,0,0,0,13.7-20.228c-.578-12.352-17.435-25.8-28.982-27.97C971.986,263.681,962.054,266.462,952.638,269.455Z" transform="translate(0 -186.699)" fill="#d4efff"/>
      <g id="_1_light" data-name="1_light">
        <g id="Grupo_94244" data-name="Grupo 94244">
          <g id="Grupo_94243" data-name="Grupo 94243" clip-path="url(#clip-path)">
            <g id="Grupo_94242" data-name="Grupo 94242" transform="translate(73.295 13.414)" style="mix-blend-mode: screen;isolation: isolate">
              <path id="Trazado_144945" data-name="Trazado 144945" d="M689.874,254.655a57.538,57.538,0,0,0-13.75-9.044,40.574,40.574,0,0,0-7.369-2.675,22.722,22.722,0,0,0-3.636-.609,32.947,32.947,0,0,0-3.774-.119A58.283,58.283,0,0,0,646.065,245l-3.87,1.2-1.948.637-.98.33-.49.166-.237.081-.062.031L634.857,249l-3.77,1.691c-10.069,4.549-20.125,9.181-29.994,14.1-4.923,2.475-9.816,5.011-14.537,7.809a75.938,75.938,0,0,0-6.9,4.481,30,30,0,0,0-6.051,5.65,23.229,23.229,0,0,1,4.256-7.5,60.345,60.345,0,0,1,5.961-6.285,113.334,113.334,0,0,1,13.6-10.473A211.541,211.541,0,0,1,627.282,242.2l3.911-1.693,1.981-.829c.691-.282,1.279-.532,2.145-.845l.431-.147.264-.079.511-.15,1.021-.3,2.065-.587c1.386-.383,2.779-.764,4.205-1.082a53.9,53.9,0,0,1,17.872-1.564,32.027,32.027,0,0,1,4.563.772,24.4,24.4,0,0,1,4.48,1.48,37.653,37.653,0,0,1,7.748,4.546A41.029,41.029,0,0,1,689.874,254.655Z" transform="translate(242.188 -173.706)" fill="url(#linear-gradient-3)" style="mix-blend-mode: screen;isolation: isolate"/>
              <path id="Trazado_144946" data-name="Trazado 144946" d="M146.6,285.822a91.143,91.143,0,0,1-22.286-19.16A108.568,108.568,0,0,1,108.378,241.7c-4.162-8.8-7.583-17.593-11.938-25.715-4.329-8.1-9.72-15.553-18.2-20.629A30.605,30.605,0,0,1,92,201.172,50.688,50.688,0,0,1,102.6,212.043c5.971,8.139,10.132,17.107,14.182,25.68a208.966,208.966,0,0,0,13.39,24.6C135.178,270.294,140.764,277.951,146.6,285.822Z" transform="translate(-30.263 -195.353)" fill="url(#linear-gradient-4)" style="mix-blend-mode: screen;isolation: isolate"/>
              <path id="Trazado_144947" data-name="Trazado 144947" d="M336.617,350a46.343,46.343,0,0,1-14.235-4.142,78.143,78.143,0,0,1-12.837-7.592,150.165,150.165,0,0,1-21.751-19.767c-6.615-7.1-12.718-14.517-18.831-21.813-6.155-7.293-12.127-14.51-19.493-20.954a52.445,52.445,0,0,1,13.183,6.7,111.323,111.323,0,0,1,11.56,9.16c7.276,6.541,13.9,13.583,20.392,20.575s12.843,13.989,19.6,20.491S328.063,345.2,336.617,350Z" transform="translate(63.914 -151.147)" fill="url(#linear-gradient-5)" style="mix-blend-mode: screen;isolation: isolate"/>
              <path id="Trazado_144948" data-name="Trazado 144948" d="M520.254,296.779a76.046,76.046,0,0,1-18.527-3.52,110.162,110.162,0,0,1-17.455-7.418C473.061,280,462.8,272.806,452.739,265.756l-7.524-5.279c-2.492-1.761-5.011-3.469-7.53-5.154a160.017,160.017,0,0,0-15.432-9.238,134.642,134.642,0,0,0-34.188-12.575,69.031,69.031,0,0,1,18.854.773,96.314,96.314,0,0,1,18.344,5.138,111.335,111.335,0,0,1,17.129,8.441c5.433,3.208,10.6,6.735,15.694,10.289,10.171,7.144,19.825,14.668,29.9,21.421,5.041,3.365,10.146,6.646,15.508,9.5A148.438,148.438,0,0,0,520.254,296.779Z" transform="translate(140.141 -174.553)" fill="url(#linear-gradient-6)" style="mix-blend-mode: screen;isolation: isolate"/>
              <path id="Trazado_144949" data-name="Trazado 144949" d="M723.12,286.466c-9.035-1.372-17.476-6.127-24.591-11.9-7.163-5.825-13.215-12.662-18.865-19.483-5.665-6.831-10.966-13.711-16.717-20.107a121.116,121.116,0,0,0-19.332-17.63c8.95,1.759,17.25,6.535,24.364,12.323,7.135,5.834,13.2,12.654,18.848,19.488,5.656,6.849,10.945,13.736,16.7,20.108A100.151,100.151,0,0,0,723.12,286.466Z" transform="translate(280.694 -183.258)" fill="url(#linear-gradient-7)" style="mix-blend-mode: screen;isolation: isolate"/>
              <path id="Trazado_144950" data-name="Trazado 144950" d="M80.111,242.469a28.232,28.232,0,0,0-5.96-1.722,15.261,15.261,0,0,0-5.62.127,13.589,13.589,0,0,0-8.3,5.645,20.513,20.513,0,0,0-3.633,9.532,37.413,37.413,0,0,0,.529,10.982c.642,3.832,1.688,7.628,2.669,11.823.941,4.111,1.781,8.2,2.57,12.276,1.592,8.175,3.092,16.2,5.177,24.521-5.577-6.6-9.221-14.612-12.211-22.523-1.5-3.976-2.787-7.987-4.047-11.955l-.921-2.973-.921-3.1c-.564-2.1-1.077-4.259-1.477-6.485a38.275,38.275,0,0,1-.048-14.009,25,25,0,0,1,6.863-12.927A19.037,19.037,0,0,1,61,237.525a16.492,16.492,0,0,1,7.291-1.192,15.8,15.8,0,0,1,6.713,2A18.909,18.909,0,0,1,80.111,242.469Z" transform="translate(-47.287 -172.835)" fill="url(#linear-gradient-8)"/>
            </g>
          </g>
        </g>
      </g>
    </g>
    <g id="Grupo_94248" data-name="Grupo 94248" transform="translate(1041.073 148.402)">
      <g id="Grupo_94247" data-name="Grupo 94247">
        <path id="Trazado_144951" data-name="Trazado 144951" d="M717.772,181.491c7.967-35.289,34.159-37.6,51.18-28.675,20.595,10.8,20.973,45.448-1.192,69.362-29.45,31.775-96.154,19.654-96.1-8.137C671.689,198.719,711.312,210.112,717.772,181.491Z" transform="translate(-671.66 -148.402)" fill="#d4efff"/>
        <g id="Grupo_94246" data-name="Grupo 94246" clip-path="url(#clip-path-2)">
          <g id="Grupo_94245" data-name="Grupo 94245" transform="translate(6.902 8.712)" style="mix-blend-mode: screen;isolation: isolate">
            <path id="Trazado_144952" data-name="Trazado 144952" d="M772.472,154.023a28.9,28.9,0,0,1,6.8,8.232,16.3,16.3,0,0,1,1.2,2.437,26.761,26.761,0,0,1,1.032,2.523,39.382,39.382,0,0,1,1.434,5.27,49.045,49.045,0,0,1-.8,21.762,62.3,62.3,0,0,1-9.12,19.921l-1.581,2.26c-.53.752-1.166,1.42-1.744,2.134A52.8,52.8,0,0,1,766,222.7a55.765,55.765,0,0,1-8.618,7.074,66.319,66.319,0,0,1-20.262,8.579,76.51,76.51,0,0,1-10.786,1.769,77.855,77.855,0,0,1-32.1-3.658c-6.739-2.424-13.335-5.882-18.116-11.165a50.406,50.406,0,0,0,18.966,8.241,84.91,84.91,0,0,0,40.579-.874,62.379,62.379,0,0,0,18.323-8.072,49.443,49.443,0,0,0,7.753-6.189,47.156,47.156,0,0,0,3.382-3.686,49.749,49.749,0,0,0,3.133-3.942,63.1,63.1,0,0,0,9.255-17.848,50.016,50.016,0,0,0,2.435-20A33.31,33.31,0,0,0,772.472,154.023Z" transform="translate(-676.113 -154.023)" fill="url(#linear-gradient-9)"/>
          </g>
        </g>
      </g>
    </g>
    <g id="Grupo_94249" data-name="Grupo 94249" transform="translate(720.183 230.293)">
      <circle id="Elipse_4566" data-name="Elipse 4566" cx="30.911" cy="30.911" r="30.911" fill="url(#linear-gradient-10)"/>
    </g>
    <g id="Grupo_94253" data-name="Grupo 94253" transform="translate(203.47 164.643)">
      <g id="Grupo_94252" data-name="Grupo 94252">
        <path id="Trazado_144954" data-name="Trazado 144954" d="M212.485,197.51c27.929,11.307,43.412,35.038,30.121,62.081-16.083,32.725-56.711,33.23-79.416,13.42-36.451-31.806-42.14-99.663-14.7-112.124C170.359,150.952,169.841,180.247,212.485,197.51Z" transform="translate(-131.271 -158.88)" fill="#d4efff"/>
        <g id="Grupo_94251" data-name="Grupo 94251" clip-path="url(#clip-path-3)">
          <g id="Grupo_94250" data-name="Grupo 94250" transform="translate(31.919 45.56)" style="mix-blend-mode: screen;isolation: isolate">
            <path id="Trazado_144955" data-name="Trazado 144955" d="M214.442,188.274a50.743,50.743,0,0,1,15.422,12.487,39.523,39.523,0,0,1,8.37,18.6,42.965,42.965,0,0,1-2.26,20.564c-.584,1.628-1.322,3.188-1.995,4.779-.808,1.524-1.542,3.086-2.48,4.546a48.22,48.22,0,0,1-6.225,8.334,47.473,47.473,0,0,1-17.157,11.645,48.927,48.927,0,0,1-10,2.716,50.028,50.028,0,0,1-10.252.645,54.954,54.954,0,0,1-19.719-4.444,50.01,50.01,0,0,1-16.287-11.3,59.524,59.524,0,0,0,36.014,10.91c12.457-.411,24.639-5.33,32.871-14.4a42.217,42.217,0,0,0,5.588-7.263c.856-1.277,1.527-2.672,2.275-4.021.612-1.412,1.285-2.806,1.888-4.219a40.744,40.744,0,0,0,2.948-17.918,40.15,40.15,0,0,0-3.726-13.3c-.719-1.386-1.476-2.771-2.317-4.106A61.556,61.556,0,0,0,214.442,188.274Z" transform="translate(-151.864 -188.274)" fill="url(#linear-gradient-11)"/>
          </g>
        </g>
      </g>
    </g>
  </g>
</svg>
